<svg style="display: none" width="0" height="0" xmlns="http://www.w3.org/2000/svg" xmlns:xlink="http://www.w3.org/1999/xlink">

  <symbol id="icon-magnification" viewBox="0 0 24 24">
   <path d="M23.4,19.1l-5.5-4.7c-0.1-0.1-0.3-0.2-0.5-0.2c-0.2,0-0.4,0.1-0.6,0.3c-0.6,0.9-1.4,1.7-2.3,2.3c-0.2,0.1-0.3,0.3-0.3,0.5
    c0,0.2,0,0.4,0.2,0.5l4.7,5.5c0.3,0.4,0.8,0.6,1.3,0.6c0.4,0,0.8-0.2,1.2-0.5l2-2c0.3-0.3,0.5-0.8,0.5-1.2
    C24,19.8,23.8,19.4,23.4,19.1z"/>
    <path d="M8.8,17.5c2.3,0,4.5-0.9,6.2-2.6c1.7-1.7,2.6-3.9,2.6-6.2c0-4.8-3.9-8.8-8.8-8.8C3.9,0,0,3.9,0,8.8
    C0,13.6,3.9,17.5,8.8,17.5z M2.8,8.8c0-3.3,2.7-5.9,5.9-5.9c3.3,0,5.9,2.7,5.9,5.9c0,1.6-0.6,3.1-1.7,4.2s-2.6,1.7-4.2,1.7
    C5.5,14.7,2.8,12,2.8,8.8z"/>
    <path d="M11,6.1H6.5c-0.7,0-1.3,0.6-1.3,1.3v2.7c0,0.7,0.6,1.3,1.3,1.3H11c0.7,0,1.3-0.6,1.3-1.3V7.4C12.3,6.7,11.7,6.1,11,6.1z
    M7.6,10.5V7l3.5,1.8L7.6,10.5z"/>
  </symbol>

  <symbol id="icon-filter" viewBox="0 0 24 24">
    <path d="M12,4.9c-2.7,0-5,2.2-5,5c0,0.2,0.2,0.4,0.4,0.4c0.2,0,0.4-0.2,0.4-0.4c0-2.3,1.9-4.2,4.2-4.2c2.3,0,4.2,1.9,4.2,4.2
			c0,0.2,0.2,0.4,0.4,0.4c0.2,0,0.4-0.2,0.4-0.4C17,7.1,14.7,4.9,12,4.9z"/>
		<path d="M12,6.4c-1.9,0-3.4,1.5-3.4,3.4c0,0.2,0.2,0.4,0.4,0.4c0.2,0,0.4-0.2,0.4-0.4c0-1.5,1.2-2.7,2.7-2.7s2.7,1.2,2.7,2.7
			c0,0.2,0.2,0.4,0.4,0.4c0.2,0,0.4-0.2,0.4-0.4C15.4,7.9,13.9,6.4,12,6.4z"/>
		<path d="M23.6,11H0.4C0.2,11,0,11.2,0,11.4v2c0,0.1,0.1,0.2,0.2,0.3l7.7,5.2c0.2,0.2,0.5,0.6,0.5,0.9v3.8c0,0.2,0.2,0.4,0.4,0.4
			h6.6c0.2,0,0.4-0.2,0.4-0.4v-3.8c0-0.3,0.2-0.7,0.5-0.9l7.7-5.2c0.1-0.1,0.2-0.2,0.2-0.3v-2C24,11.2,23.8,11,23.6,11z M23.2,13
			H7.4C7.2,13,7,13.2,7,13.4s0.2,0.4,0.4,0.4h15l-6.6,4.5c0,0,0,0,0,0c-0.4,0.3-0.8,1-0.8,1.5v3.4H9.1v-3.4c0-0.5-0.3-1.2-0.8-1.5
			c0,0,0,0,0,0l-6.6-4.5h4.2c0.2,0,0.4-0.2,0.4-0.4S6.1,13,5.9,13H0.8v-1.3h22.5L23.2,13L23.2,13z"/>
		<path d="M13.9,18.6h-3.8c-0.2,0-0.4,0.2-0.4,0.4c0,0.2,0.2,0.4,0.4,0.4h3.8c0.2,0,0.4-0.2,0.4-0.4C14.3,18.8,14.1,18.6,13.9,18.6z
			"/>
		<path d="M21.5,7.9l-1.7-0.2c-0.2-0.7-0.5-1.3-0.8-1.9l1.1-1.3c0.1-0.2,0.1-0.4,0-0.5l-2.2-2.2c-0.1-0.1-0.4-0.2-0.5,0L16,2.9
			c-0.6-0.4-1.3-0.6-1.9-0.8l-0.2-1.7c0-0.2-0.2-0.3-0.4-0.3h-3.1c-0.2,0-0.4,0.2-0.4,0.3L9.9,2.1C9.2,2.2,8.6,2.5,8,2.9L6.6,1.8
			c-0.2-0.1-0.4-0.1-0.5,0L3.9,4c-0.1,0.1-0.2,0.4,0,0.5L5,5.8C4.7,6.4,4.4,7.1,4.2,7.8L2.5,7.9c-0.2,0-0.3,0.2-0.3,0.4v1.5
			c0,0.2,0.2,0.4,0.4,0.4S2.9,10,2.9,9.8V8.6l1.6-0.2c0.2,0,0.3-0.1,0.3-0.3C5.1,7.4,5.4,6.7,5.8,6c0.1-0.1,0.1-0.3,0-0.4L4.7,4.3
			l1.7-1.7l1.3,1.1c0.1,0.1,0.3,0.1,0.4,0c0.7-0.4,1.4-0.7,2.2-0.9c0.2,0,0.3-0.2,0.3-0.3l0.2-1.6h2.4l0.2,1.6
			c0,0.2,0.1,0.3,0.3,0.3c0.8,0.2,1.5,0.5,2.2,0.9c0.1,0.1,0.3,0.1,0.4,0l1.3-1.1l1.7,1.7l-1,1.3c-0.1,0.1-0.1,0.3,0,0.4
			c0.4,0.7,0.7,1.4,0.9,2.2c0,0.2,0.2,0.3,0.3,0.3l1.6,0.2v1.2c0,0.2,0.2,0.4,0.4,0.4c0.2,0,0.4-0.2,0.4-0.4V8.3
			C21.8,8.1,21.7,7.9,21.5,7.9z"/>
  </symbol>

  <symbol id="icon-mask" viewBox="0 0 24 24">
    <path d="M24,2.7c0-0.5-0.3-0.9-0.7-1.1c-0.4-0.2-0.9-0.3-1.3,0C20.1,2.5,18.1,3,16,3c-2.1,0-4.1-0.5-6-1.4c-0.4-0.2-0.9-0.2-1.3,0
        C8.3,1.8,8,2.3,8,2.7c0,0.5,0,0.9,0,1.4c0,0.9,0,1.8,0.1,2.7c0,0,0,0,0,0c-2.1,0-4.1-0.5-6-1.4c-0.4-0.2-0.9-0.2-1.3,0
        C0.3,5.7,0.1,6.1,0,6.6C0,7.1,0,7.5,0,8c0,3.8,0.8,7.4,2.3,10.2C3.8,21,5.8,22.6,8,22.6c2.2,0,4.3-1.6,5.8-4.4
        c0.7,0.4,1.4,0.5,2.2,0.5c2.2,0,4.3-1.6,5.8-4.4C23.2,11.6,24,8,24,4.2C24,3.7,24,3.2,24,2.7z M14.1,14.3c-0.3,1-0.6,2-1.1,2.9
        c0,0,0,0,0,0c-0.1,0.2-0.2,0.3-0.2,0.5c-1.3,2.5-3,3.8-4.8,3.8c-1.8,0-3.5-1.4-4.8-3.8c-1.4-2.6-2.1-6-2.1-9.6c0-0.5,0-0.9,0-1.4
        c0-0.1,0.1-0.2,0.1-0.2c0,0,0.1,0,0.1,0c0,0,0.1,0,0.1,0c2,1,4.2,1.5,6.5,1.5c0.2,0,0.4,0,0.7,0c0,0,0,0,0,0c2-0.1,4-0.6,5.8-1.5
        c0.1-0.1,0.2,0,0.3,0c0,0,0.1,0.1,0.1,0.2c0,0.4,0,0.9,0,1.4c0,2.2-0.3,4.3-0.8,6.2C14.2,14.2,14.1,14.2,14.1,14.3z M20.8,13.8
        c-1.3,2.5-3,3.8-4.8,3.8c-0.6,0-1.1-0.1-1.7-0.4c0.4-0.8,0.7-1.7,0.9-2.6c0.2-0.2,0.5-0.3,0.8-0.3c0.3,0,0.7,0.2,0.9,0.4
        c0.1,0.2,0.3,0.2,0.5,0.2c0.1,0,0.2,0,0.3-0.1c0.3-0.2,0.3-0.5,0.1-0.8c-0.4-0.6-1.1-0.9-1.8-0.9c-0.1,0-0.3,0-0.4,0
        c0.3-1.6,0.5-3.4,0.5-5.2c0-0.5,0-0.9,0-1.4c0-0.5-0.3-0.9-0.7-1.1c-0.4-0.2-0.9-0.3-1.3,0c-1.5,0.8-3.1,1.2-4.8,1.4
        C9.1,5.9,9.1,5,9.1,4.2c0-0.5,0-0.9,0-1.4c0-0.1,0.1-0.2,0.1-0.2c0,0,0.1-0.1,0.3,0c2,1,4.2,1.5,6.5,1.5c2.3,0,4.4-0.5,6.5-1.5
        c0.1-0.1,0.2,0,0.3,0c0,0,0.1,0.1,0.1,0.2c0,0.4,0,0.9,0,1.4C22.9,7.8,22.1,11.2,20.8,13.8z"/>
    <path d="M20.5,6.9c-0.3-0.1-0.6,0-0.7,0.3c-0.1,0.3-0.5,0.6-0.8,0.6c-0.4,0-0.7-0.2-0.8-0.6c-0.1-0.3-0.4-0.4-0.7-0.3
        C17.1,7,16.9,7.3,17,7.6c0.3,0.8,1.1,1.3,1.9,1.3c0.8,0,1.6-0.5,1.9-1.3C20.9,7.3,20.8,7,20.5,6.9z"/>
    <path d="M11.8,14.6c-0.2-0.1-0.5,0-0.6,0.2l-0.4,0.7H9.7l-0.4-0.7c-0.1-0.1-0.2-0.2-0.4-0.2H7.2c-0.1,0-0.3,0.1-0.4,0.2l-0.4,0.7
        H5.3l-0.4-0.7c-0.1-0.2-0.4-0.3-0.6-0.2c-0.2,0.1-0.3,0.4-0.2,0.6l0.5,0.9c0.1,0.1,0.2,0.2,0.4,0.2h1.6c0.1,0,0.3-0.1,0.4-0.2
        l0.4-0.7h1.2l0.4,0.7c0.1,0.1,0.2,0.2,0.4,0.2h1.6c0.2,0,0.3-0.1,0.4-0.2l0.5-0.9C12.1,15,12,14.7,11.8,14.6z"/>
    <polygon points="8.1,19.8 8.9,17 7.3,17 	"/>
    <path d="M5.4,10.9c0.6,0,1.2,0.3,1.5,0.8C7,11.9,7.3,12,7.5,11.9c0.2-0.1,0.3-0.4,0.2-0.6C7.2,10.5,6.3,10,5.4,10
        c-0.9,0-1.7,0.5-2.2,1.3c-0.1,0.2,0,0.5,0.2,0.6c0.1,0,0.1,0.1,0.2,0.1c0.1,0,0.3-0.1,0.4-0.2C4.2,11.2,4.8,10.9,5.4,10.9z"/>
    <path d="M4.9,11.5c-0.2,0-0.3,0.1-0.3,0.3s0.1,0.3,0.3,0.3H6c0.2,0,0.3-0.1,0.3-0.3S6.2,11.5,6,11.5H4.9z"/>
    <path d="M10.8,10c-0.9,0-1.7,0.5-2.2,1.3c-0.1,0.2,0,0.5,0.2,0.6c0.1,0,0.1,0.1,0.2,0.1c0.1,0,0.3-0.1,0.4-0.2
        c0.3-0.5,0.9-0.8,1.5-0.8c0.6,0,1.2,0.3,1.5,0.8c0.1,0.2,0.4,0.3,0.6,0.2c0.2-0.1,0.3-0.4,0.2-0.6C12.5,10.5,11.7,10,10.8,10z"/>
    <path d="M11.4,12.1c0.2,0,0.3-0.1,0.3-0.3s-0.1-0.3-0.3-0.3h-1.1c-0.2,0-0.3,0.1-0.3,0.3s0.1,0.3,0.3,0.3H11.4z"/>
    <path d="M8.5,16.5c0.2,0,0.3-0.1,0.3-0.3s-0.1-0.3-0.3-0.3H7.7c-0.2,0-0.3,0.1-0.3,0.3s0.1,0.3,0.3,0.3H8.5z"/>
  </symbol>

  <symbol id="icon-back" viewBox="0 0 24 24">
    <path d="M20 11H7.83l5.59-5.59L12 4l-8 8 8 8 1.41-1.41L7.83 13H20v-2z"/>
  </symbol>

</svg>
